<?xml version="1.0" standalone="no"?>
<!DOCTYPE svg PUBLIC "-//W3C//DTD SVG 20010904//EN"
 "http://www.w3.org/TR/2001/REC-SVG-20010904/DTD/svg10.dtd">
<svg version="1.0" xmlns="http://www.w3.org/2000/svg"
 width="384.000000pt" height="384.000000pt" viewBox="0 0 384.000000 384.000000"
 preserveAspectRatio="xMidYMid meet">

<g transform="translate(0.000000,384.000000) scale(0.100000,-0.100000)"
fill="#000000" stroke="none">
<path d="M1584 2792 c3 -5 -2 -19 -11 -32 -15 -22 -17 -22 -30 -5 -12 18 -13
18 -13 -4 0 -12 -4 -19 -10 -16 -6 4 -7 11 -4 17 4 7 2 8 -5 4 -6 -4 -8 -12
-5 -18 5 -8 1 -9 -10 -5 -10 4 -15 3 -11 -3 4 -6 17 -8 30 -6 14 3 29 -2 38
-12 8 -9 108 -167 222 -349 115 -183 211 -333 214 -333 9 0 56 80 54 90 -3 12
-405 643 -417 655 -14 14 -49 27 -42 17z"/>
<path d="M1553 2765 c0 -8 4 -12 9 -9 4 3 8 9 8 15 0 5 -4 9 -8 9 -5 0 -9 -7
-9 -15z"/>
<path d="M1335 2632 c2 -18 -12 -32 -33 -32 -7 0 -10 5 -7 10 4 6 11 8 16 5 5
-4 9 -1 9 4 0 15 -15 14 -29 -3 -9 -11 25 -73 171 -304 l182 -290 28 44 c15
25 28 47 28 50 0 2 -73 119 -162 260 -111 176 -165 253 -175 250 -8 -3 -12 -2
-9 3 3 5 0 11 -8 14 -9 4 -13 0 -11 -11z"/>
<path d="M1822 1844 c-29 -45 -29 -48 -14 -74 10 -14 109 -171 222 -348 l205
-322 233 0 c193 0 232 2 225 13 -4 8 -118 186 -252 396 l-244 382 -29 -45
c-15 -25 -28 -48 -28 -51 0 -2 83 -135 185 -295 102 -160 185 -293 185 -295 0
-3 -49 -5 -109 -5 l-109 0 -220 345 -220 345 -30 -46z"/>
</g>
</svg>
